<svg width="57" height="57" viewBox="0 0 57 57" fill="none" xmlns="http://www.w3.org/2000/svg">
<g clip-path="url(#clip0_10_11)">
<rect x="0.618675" y="0.419846" width="56.2842" height="55.6414" rx="10" fill="white"/>
<path d="M55.3023 23.2252C55.6305 25.0926 55.7941 26.9845 55.7913 28.8798C55.7913 37.3443 52.7308 44.5011 47.4049 49.3454H47.412C42.7545 53.5985 36.3521 56.0606 28.7608 56.0606C21.297 56.0606 14.139 53.1295 8.86131 47.9121C3.58364 42.6947 0.618675 35.6184 0.618675 28.2399C0.618675 20.8614 3.58364 13.7851 8.86131 8.56771C14.139 3.35032 21.297 0.419214 28.7608 0.419214C35.7469 0.338331 42.4936 2.93293 47.5879 7.65955L39.5533 15.6024C36.649 12.8654 32.7728 11.3666 28.7608 11.4293C21.4192 11.4293 15.1822 16.3257 12.959 22.9192C11.7802 26.3742 11.7802 30.1161 12.959 33.5711H12.9695C15.2033 40.1541 21.4298 45.0506 28.7713 45.0506C32.5635 45.0506 35.8209 44.0908 38.3467 42.3937H38.3362C39.8027 41.4332 41.0573 40.1889 42.024 38.7359C42.9908 37.2829 43.6497 35.6514 43.9611 33.9397H28.7608V23.2287H55.3023V23.2252Z" fill="black"/>
</g>
<defs>
<clipPath id="clip0_10_11">
<rect x="0.618675" y="0.419846" width="56.2842" height="55.6414" rx="10" fill="white"/>
</clipPath>
</defs>
</svg>
